<svg width="127" height="30" viewBox="0 0 127 30" fill="none" xmlns="http://www.w3.org/2000/svg">
<rect width="54" height="30" fill="white"/>
<path d="M9.645 14.675C9.825 13.625 10.2 12.69 10.77 11.87C11.34 11.05 12.06 10.415 12.93 9.965C13.8 9.505 14.77 9.275 15.84 9.275C16.76 9.275 17.55 9.45 18.21 9.8C18.88 10.14 19.39 10.625 19.74 11.255C20.09 11.885 20.26 12.62 20.25 13.46H16.74C16.64 13.11 16.46 12.84 16.2 12.65C15.94 12.45 15.62 12.35 15.24 12.35C14.68 12.35 14.2 12.56 13.8 12.98C13.4 13.4 13.14 13.965 13.02 14.675C12.98 14.875 12.96 15.09 12.96 15.32C12.96 15.84 13.085 16.25 13.335 16.55C13.595 16.85 13.96 17 14.43 17C14.81 17 15.165 16.905 15.495 16.715C15.825 16.515 16.1 16.24 16.32 15.89H19.83C19.53 16.73 19.095 17.465 18.525 18.095C17.955 18.725 17.275 19.215 16.485 19.565C15.705 19.905 14.855 20.075 13.935 20.075C13.005 20.075 12.21 19.905 11.55 19.565C10.89 19.215 10.39 18.725 10.05 18.095C9.71 17.455 9.54 16.715 9.54 15.875C9.54 15.465 9.575 15.065 9.645 14.675ZM27.3889 18.395H23.8489L23.0389 20H19.5439L25.3039 9.38H29.1439L31.1389 20H27.6289L27.3889 18.395ZM27.0289 15.89L26.5939 12.935L25.1089 15.89H27.0289ZM38.7205 9.38C39.8605 9.38 40.7255 9.635 41.3155 10.145C41.9055 10.655 42.2005 11.335 42.2005 12.185C42.2005 12.435 42.1805 12.66 42.1405 12.86C42.0105 13.58 41.7005 14.215 41.2105 14.765C40.7205 15.305 40.0855 15.695 39.3055 15.935L40.8955 20H37.2355L35.9005 16.19L35.2255 20H31.8955L33.7705 9.38H38.7205ZM36.2905 13.97H37.6105C37.9305 13.97 38.1805 13.9 38.3605 13.76C38.5505 13.61 38.6755 13.38 38.7355 13.07C38.7455 13.02 38.7505 12.955 38.7505 12.875C38.7505 12.655 38.6805 12.485 38.5405 12.365C38.4005 12.235 38.1955 12.17 37.9255 12.17H36.6055L36.2905 13.97Z" fill="black" fill-opacity="0.9"/>
<path d="M9 21.5H41.9455V22.25H9V21.5Z" fill="black" fill-opacity="0.9"/>
<rect x="54" width="73" height="30" fill="#0E9CFF"/>
<path d="M77.205 16.775L77.685 17.51C77.195 19.23 76.18 20.09 74.64 20.09C74.29 20.09 73.985 20.025 73.725 19.895C73.475 19.765 73.285 19.61 73.155 19.43C73.025 19.25 72.92 19.02 72.84 18.74C72.73 18.32 72.67 17.765 72.66 17.075C72.66 16.385 72.575 15.91 72.405 15.65C72.245 15.39 71.935 15.245 71.475 15.215L71.64 13.94C71.66 13.94 71.675 13.94 71.685 13.94C72.265 13.94 72.745 13.775 73.125 13.445C73.535 13.075 73.74 12.6 73.74 12.02C73.74 11.44 73.465 10.95 72.915 10.55C72.375 10.15 71.675 9.95 70.815 9.95C69.705 9.95 68.85 10.225 68.25 10.775C67.93 11.075 67.77 11.435 67.77 11.855C67.77 12.385 68.175 12.705 68.985 12.815L68.775 13.94C68.165 13.91 67.625 13.705 67.155 13.325C66.685 12.945 66.45 12.455 66.45 11.855C66.45 10.805 66.89 10 67.77 9.44C68.65 8.87 69.765 8.585 71.115 8.585C71.985 8.585 72.75 8.69 73.41 8.9C74.54 9.28 75.29 9.94 75.66 10.88C75.78 11.21 75.84 11.48 75.84 11.69C75.84 11.89 75.84 12.025 75.84 12.095C75.8 12.645 75.595 13.185 75.225 13.715C74.865 14.245 74.32 14.61 73.59 14.81C74.03 14.9 74.33 15.09 74.49 15.38C74.65 15.67 74.735 16.11 74.745 16.7C74.755 17.71 74.8 18.325 74.88 18.545C74.97 18.755 75.15 18.86 75.42 18.86C76.15 18.86 76.745 18.165 77.205 16.775ZM68.01 20.09C67.48 20.09 67.055 19.93 66.735 19.61C66.415 19.29 66.255 18.895 66.255 18.425C66.255 17.205 67.15 16.185 68.94 15.365C69.3 12.565 69.485 11.13 69.495 11.06C69.915 10.79 70.39 10.655 70.92 10.655C71.14 10.655 71.39 10.685 71.67 10.745L70.725 17.15C70.425 19.11 69.52 20.09 68.01 20.09ZM67.365 18.245C67.365 18.565 67.535 18.725 67.875 18.725C68.275 18.725 68.53 18.365 68.64 17.645L68.775 16.625C67.835 17.175 67.365 17.715 67.365 18.245ZM79.3192 16.64C79.9392 16.51 80.3992 16.26 80.6992 15.89C81.0092 15.52 81.1642 15.165 81.1642 14.825C81.1642 14.475 81.0692 14.24 80.8792 14.12C80.6992 13.99 80.4992 13.925 80.2792 13.925C79.8092 13.925 79.3942 14.19 79.0342 14.72C78.6842 15.24 78.5092 15.865 78.5092 16.595C78.5092 17.315 78.6792 17.855 79.0192 18.215C79.3692 18.565 79.7992 18.74 80.3092 18.74C81.0592 18.74 81.7792 18.48 82.4692 17.96C83.1592 17.44 83.7192 16.76 84.1492 15.92C84.3692 16.13 84.5692 16.39 84.7492 16.7C84.4192 17.45 83.8342 18.185 82.9942 18.905C82.5742 19.255 82.0742 19.54 81.4942 19.76C80.9242 19.98 80.3342 20.09 79.7242 20.09C78.7242 20.09 77.9342 19.785 77.3542 19.175C76.7342 18.515 76.4242 17.67 76.4242 16.64C76.4242 15.61 76.8092 14.71 77.5792 13.94C78.3592 13.17 79.2892 12.785 80.3692 12.785C81.1392 12.785 81.7642 12.955 82.2442 13.295C82.7242 13.625 82.9692 14.075 82.9792 14.645C82.9792 15.415 82.6692 16.04 82.0492 16.52C81.4392 17 80.5992 17.335 79.5292 17.525L79.3192 16.64ZM87.7915 18.32L88.1515 14.975C88.1515 14.705 88.0815 14.48 87.9415 14.3C87.8015 14.12 87.5665 14.03 87.2365 14.03C86.9165 14.03 86.6415 14.175 86.4115 14.465C86.1915 14.745 86.0515 15.1 85.9915 15.53C85.6315 18.27 85.4415 19.76 85.4215 20H83.3965L84.2215 12.935C84.6415 12.825 84.9615 12.77 85.1815 12.77C85.8515 12.77 86.2015 13.015 86.2315 13.505C86.7215 13.025 87.3065 12.785 87.9865 12.785C88.6765 12.785 89.2165 12.955 89.6065 13.295C89.9965 13.635 90.1915 14.065 90.1915 14.585C90.1915 14.725 90.1615 14.99 90.1015 15.38C89.8715 16.9 89.7565 17.785 89.7565 18.035C89.7565 18.495 89.9115 18.725 90.2215 18.725C90.9015 18.725 91.4165 18.015 91.7665 16.595C92.1065 16.955 92.3115 17.24 92.3815 17.45C91.8515 19.21 90.9315 20.09 89.6215 20.09C89.0015 20.09 88.5415 19.9 88.2415 19.52C87.9415 19.14 87.7915 18.74 87.7915 18.32ZM94.6848 9.56C94.6848 9.62 94.5498 10.695 94.2798 12.785H96.4848V13.94H94.1298L94.0848 14.315C95.2548 15.295 95.8398 16.365 95.8398 17.525C95.8398 18.435 95.6048 19.09 95.1348 19.49C94.6748 19.89 94.1198 20.09 93.4698 20.09C92.8198 20.09 92.3448 19.92 92.0448 19.58C91.7448 19.23 91.5948 18.81 91.5948 18.32C91.5948 18.21 91.6048 18.09 91.6248 17.96L92.0898 13.97L92.0298 13.94H90.8148C90.8048 13.84 90.7998 13.68 90.7998 13.46C90.7998 13.23 90.8448 13.005 90.9348 12.785H92.2248L92.7048 8.705C92.9148 8.625 93.1948 8.585 93.5448 8.585C94.3048 8.585 94.6848 8.91 94.6848 9.56ZM94.8348 17.51C94.8348 16.82 94.5348 16.14 93.9348 15.47C93.7548 16.96 93.6648 17.82 93.6648 18.05C93.6648 18.5 93.8098 18.725 94.0998 18.725C94.3098 18.725 94.4848 18.63 94.6248 18.44C94.7648 18.24 94.8348 17.93 94.8348 17.51ZM103.126 20.075C102.206 20.075 101.596 19.755 101.296 19.115C100.776 19.765 100.106 20.09 99.2861 20.09C98.4761 20.09 97.7911 19.815 97.2311 19.265C96.6811 18.715 96.4061 17.99 96.4061 17.09C96.4061 15.78 96.7911 14.735 97.5611 13.955C98.3311 13.175 99.3061 12.785 100.486 12.785C100.516 12.785 100.546 12.785 100.576 12.785C101.076 12.785 101.536 12.87 101.956 13.04C102.226 12.87 102.551 12.785 102.931 12.785C103.321 12.785 103.601 12.835 103.771 12.935C103.681 13.675 103.586 14.405 103.486 15.125C103.386 15.835 103.316 16.34 103.276 16.64C103.186 17.32 103.141 17.81 103.141 18.11C103.141 18.51 103.301 18.71 103.621 18.71C103.871 18.71 104.136 18.545 104.416 18.215C104.696 17.875 104.941 17.345 105.151 16.625C105.441 16.885 105.641 17.175 105.751 17.495C105.461 18.445 105.071 19.115 104.581 19.505C104.091 19.885 103.606 20.075 103.126 20.075ZM100.711 13.955C100.071 13.955 99.5611 14.2 99.1811 14.69C98.8111 15.17 98.5911 15.89 98.5211 16.85C98.5111 16.94 98.5061 17.025 98.5061 17.105C98.5061 17.595 98.6211 17.985 98.8511 18.275C99.0911 18.565 99.3961 18.71 99.7661 18.71C100.396 18.71 100.871 18.265 101.191 17.375L101.551 14.135C101.261 14.015 100.981 13.955 100.711 13.955ZM106.679 20.105C106.069 20.105 105.589 19.935 105.239 19.595C104.889 19.245 104.714 18.77 104.714 18.17C104.714 18.01 104.984 15.635 105.524 11.045C105.664 9.865 106.039 9.12 106.649 8.81C106.929 8.66 107.264 8.585 107.654 8.585C108.974 8.585 109.634 9.195 109.634 10.415C109.634 10.515 109.629 10.62 109.619 10.73C109.519 12.07 108.679 13.435 107.099 14.825C107.049 15.315 106.994 15.79 106.934 16.25C106.814 17.28 106.754 17.85 106.754 17.96C106.754 18.48 106.979 18.74 107.429 18.74C107.919 18.74 108.374 18.46 108.794 17.9C109.224 17.33 109.554 16.605 109.784 15.725C109.874 15.755 109.999 15.84 110.159 15.98C110.319 16.11 110.429 16.225 110.489 16.325C110.329 17.155 109.969 17.95 109.409 18.71C109.129 19.1 108.774 19.42 108.344 19.67C107.854 19.96 107.299 20.105 106.679 20.105ZM107.264 13.325C108.184 12.315 108.644 11.41 108.644 10.61C108.644 10.13 108.464 9.89 108.104 9.89C107.874 9.91 107.719 10.06 107.639 10.34C107.569 10.62 107.499 11.075 107.429 11.705C107.369 12.335 107.329 12.725 107.309 12.875L107.264 13.325Z" fill="white"/>
</svg>
